<svg width="287" height="81" viewBox="0 0 287 81" fill="none" xmlns="http://www.w3.org/2000/svg">
<g filter="url(#filter0_d)">
<path d="M17.45 56.4C14.8167 56.4 12.2667 56 9.80005 55.2C7.36672 54.3667 5.45005 53.3 4.05005 52L5.90005 48.1C7.23338 49.3 8.93338 50.2834 11 51.05C13.1 51.7834 15.25 52.15 17.45 52.15C20.35 52.15 22.5167 51.6667 23.95 50.7C25.3834 49.7 26.1 48.3834 26.1 46.75C26.1 45.55 25.7001 44.5834 24.9001 43.85C24.1334 43.0834 23.1667 42.5 22 42.1C20.8667 41.7 19.25 41.25 17.15 40.75C14.5167 40.1167 12.3834 39.4834 10.75 38.85C9.15005 38.2167 7.76672 37.25 6.60005 35.95C5.46672 34.6167 4.90005 32.8334 4.90005 30.6C4.90005 28.7334 5.38338 27.05 6.35005 25.55C7.35005 24.05 8.85005 22.85 10.85 21.95C12.85 21.05 15.3334 20.6 18.3 20.6C20.3667 20.6 22.4 20.8667 24.4 21.4C26.4 21.9334 28.1167 22.7 29.55 23.7L27.9 27.7C26.4334 26.7667 24.8667 26.0667 23.2001 25.6C21.5334 25.1 19.9 24.85 18.3 24.85C15.4667 24.85 13.3334 25.3667 11.9 26.4C10.5 27.4334 9.80005 28.7667 9.80005 30.4C9.80005 31.6 10.2 32.5834 11 33.35C11.8 34.0834 12.7834 34.6667 13.95 35.1C15.15 35.5 16.7667 35.9334 18.8 36.4C21.4334 37.0334 23.5501 37.6667 25.1501 38.3C26.7501 38.9334 28.1167 39.9 29.25 41.2C30.4167 42.5 31.0001 44.25 31.0001 46.45C31.0001 48.2834 30.5001 49.9667 29.5 51.5C28.5 53 26.9834 54.2 24.9501 55.1C22.9167 55.9667 20.4167 56.4 17.45 56.4Z" fill="white"/>
<path d="M52.5047 54.45C51.8047 55.05 50.9381 55.5167 49.9047 55.85C48.8714 56.15 47.8047 56.3 46.7047 56.3C44.0381 56.3 41.9714 55.5834 40.5047 54.15C39.0381 52.7167 38.3047 50.6667 38.3047 48V33.45H33.8047V29.5H38.3047V23.7H43.1047V29.5H50.7047V33.45H43.1047V47.8C43.1047 49.2334 43.4547 50.3334 44.1547 51.1C44.8881 51.8667 45.9214 52.25 47.2547 52.25C48.7214 52.25 49.9714 51.8334 51.0047 51L52.5047 54.45Z" fill="white"/>
<path d="M99.8872 56.3C97.1872 56.3 94.7705 55.7167 92.6372 54.55C90.5372 53.3834 88.8872 51.7834 87.6872 49.75C86.4872 47.6834 85.8872 45.35 85.8872 42.75C85.8872 40.15 86.4872 37.8334 87.6872 35.8C88.8872 33.7334 90.5372 32.1334 92.6372 31C94.7705 29.8334 97.1872 29.25 99.8872 29.25C102.287 29.25 104.42 29.7334 106.287 30.7C108.187 31.6667 109.654 33.0667 110.687 34.9L107.037 37.25C106.204 35.9834 105.17 35.0334 103.937 34.4C102.704 33.7667 101.337 33.45 99.8372 33.45C98.1038 33.45 96.5372 33.8334 95.1372 34.6C93.7705 35.3667 92.6872 36.4667 91.8872 37.9C91.1205 39.3 90.7372 40.9167 90.7372 42.75C90.7372 44.6167 91.1205 46.2667 91.8872 47.7C92.6872 49.1 93.7705 50.1834 95.1372 50.95C96.5372 51.7167 98.1038 52.1 99.8372 52.1C101.337 52.1 102.704 51.7834 103.937 51.15C105.17 50.5167 106.204 49.5667 107.037 48.3L110.687 50.6C109.654 52.4334 108.187 53.85 106.287 54.85C104.42 55.8167 102.287 56.3 99.8872 56.3Z" fill="white"/>
<path d="M126.86 43.65L121.36 48.75V56H116.56V18.9H121.36V42.7L135.81 29.5H141.61L130.46 40.45L142.71 56H136.81L126.86 43.65Z" fill="white"/>
<path d="M153.07 25.35V37.55H170.62V41.85H153.07V56H148.07V21H172.77V25.35H153.07Z" fill="white"/>
<path d="M202.229 42.9C202.229 43.2667 202.195 43.75 202.129 44.35H180.629C180.929 46.6834 181.945 48.5667 183.679 50C185.445 51.4 187.629 52.1 190.229 52.1C193.395 52.1 195.945 51.0334 197.879 48.9L200.529 52C199.329 53.4 197.829 54.4667 196.029 55.2C194.262 55.9334 192.279 56.3 190.079 56.3C187.279 56.3 184.795 55.7334 182.629 54.6C180.462 53.4334 178.779 51.8167 177.579 49.75C176.412 47.6834 175.829 45.35 175.829 42.75C175.829 40.1834 176.395 37.8667 177.529 35.8C178.695 33.7334 180.279 32.1334 182.279 31C184.312 29.8334 186.595 29.25 189.129 29.25C191.662 29.25 193.912 29.8334 195.879 31C197.879 32.1334 199.429 33.7334 200.529 35.8C201.662 37.8667 202.229 40.2334 202.229 42.9ZM189.129 33.3C186.829 33.3 184.895 34 183.329 35.4C181.795 36.8 180.895 38.6334 180.629 40.9H197.629C197.362 38.6667 196.445 36.85 194.879 35.45C193.345 34.0167 191.429 33.3 189.129 33.3Z" fill="white"/>
<path d="M223.794 54.45C223.094 55.05 222.227 55.5167 221.194 55.85C220.16 56.15 219.094 56.3 217.994 56.3C215.327 56.3 213.26 55.5834 211.794 54.15C210.327 52.7167 209.594 50.6667 209.594 48V33.45H205.094V29.5H209.594V23.7H214.394V29.5H221.994V33.45H214.394V47.8C214.394 49.2334 214.744 50.3334 215.444 51.1C216.177 51.8667 217.21 52.25 218.544 52.25C220.01 52.25 221.26 51.8334 222.294 51L223.794 54.45Z" fill="white"/>
<path d="M240.268 56.3C237.568 56.3 235.151 55.7167 233.018 54.55C230.918 53.3834 229.268 51.7834 228.068 49.75C226.868 47.6834 226.268 45.35 226.268 42.75C226.268 40.15 226.868 37.8334 228.068 35.8C229.268 33.7334 230.918 32.1334 233.018 31C235.151 29.8334 237.568 29.25 240.268 29.25C242.668 29.25 244.801 29.7334 246.668 30.7C248.568 31.6667 250.035 33.0667 251.068 34.9L247.418 37.25C246.585 35.9834 245.551 35.0334 244.318 34.4C243.085 33.7667 241.718 33.45 240.218 33.45C238.485 33.45 236.918 33.8334 235.518 34.6C234.151 35.3667 233.068 36.4667 232.268 37.9C231.501 39.3 231.118 40.9167 231.118 42.75C231.118 44.6167 231.501 46.2667 232.268 47.7C233.068 49.1 234.151 50.1834 235.518 50.95C236.918 51.7167 238.485 52.1 240.218 52.1C241.718 52.1 243.085 51.7834 244.318 51.15C245.551 50.5167 247.5 49.25 248.5 46H252.5C252 51 248.568 53.85 246.668 54.85C244.801 55.8167 242.668 56.3 240.268 56.3Z" fill="white"/>
<path d="M271.091 29.25C274.457 29.25 277.124 30.2334 279.091 32.2C281.091 34.1334 282.091 36.9834 282.091 40.75V56H277.291V41.3C277.291 38.7334 276.674 36.8 275.441 35.5C274.207 34.2 272.441 33.55 270.141 33.55C267.541 33.55 265.491 34.3167 263.991 35.85C262.491 37.35 261.741 39.5167 261.741 42.35V56H256.941V18.9H261.741V33.25C262.741 31.9834 264.041 31 265.641 30.3C267.274 29.6 269.091 29.25 271.091 29.25Z" fill="white"/>
</g>
<path d="M240 68.5L240 56.0172" stroke="white" stroke-width="4"/>
<path d="M238.662 36.557C238.662 36.557 236.951 37.335 236.066 38.4303C235.29 39.3909 234.419 41.3521 234.419 41.3521" stroke="white" stroke-width="2"/>
<path d="M58.5 35.4998C62.5 33.9998 69 31.4998 69 31.4998L78 34.9998V39V46.4998M78 46.4998V55H60.5V46.4998L69 41.9998L78 46.4998Z" stroke="white" stroke-width="4"/>
<defs>
<filter id="filter0_d" x="0.0500488" y="18.9" width="286.041" height="45.5" filterUnits="userSpaceOnUse" color-interpolation-filters="sRGB">
<feBlend mode="normal" in="SourceGraphic" in2="effect1_dropShadow" result="shape"/>
</filter>
</defs>
</svg>
