<svg width="279" height="50" viewBox="0 0 279 50" fill="none" xmlns="http://www.w3.org/2000/svg">
    <path d="M13.4 37.5c-2.633 0-5.183-.4-7.65-1.2-2.433-.833-4.35-1.9-5.75-3.2l1.85-3.9c1.333 1.2 3.033 2.183 5.1 2.95 2.1.733 4.25 1.1 6.45 1.1 2.9 0 5.067-.483 6.5-1.45 1.433-1 2.15-2.317 2.15-3.95 0-1.2-.4-2.167-1.2-2.9-.767-.767-1.733-1.35-2.9-1.75-1.133-.4-2.75-.85-4.85-1.35-2.633-.633-4.767-1.267-6.4-1.9a10.9 10.9 0 0 1-4.15-2.9C1.417 15.717.85 13.933.85 11.7c0-1.867.483-3.55 1.45-5.05 1-1.5 2.5-2.7 4.5-3.6 2-.9 4.483-1.35 7.45-1.35 2.067 0 4.1.267 6.1.8s3.717 1.3 5.15 2.3l-1.65 4a17.495 17.495 0 0 0-4.7-2.1c-1.667-.5-3.3-.75-4.9-.75-2.833 0-4.967.517-6.4 1.55-1.4 1.033-2.1 2.367-2.1 4 0 1.2.4 2.183 1.2 2.95.8.733 1.783 1.317 2.95 1.75 1.2.4 2.817.833 4.85 1.3 2.633.633 4.75 1.267 6.35 1.9 1.6.633 2.967 1.6 4.1 2.9 1.167 1.3 1.75 3.05 1.75 5.25 0 1.833-.5 3.517-1.5 5.05-1 1.5-2.517 2.7-4.55 3.6-2.033.867-4.533 1.3-7.5 1.3zM48.455 35.55c-.7.6-1.567 1.067-2.6 1.4-1.034.3-2.1.45-3.2.45-2.667 0-4.734-.717-6.2-2.15-1.467-1.433-2.2-3.483-2.2-6.15V14.55h-4.5V10.6h4.5V4.8h4.8v5.8h7.6v3.95h-7.6V28.9c0 1.433.35 2.533 1.05 3.3.733.767 1.766 1.15 3.1 1.15 1.466 0 2.716-.417 3.75-1.25l1.5 3.45zM95.837 37.4c-2.7 0-5.117-.583-7.25-1.75-2.1-1.167-3.75-2.767-4.95-4.8-1.2-2.067-1.8-4.4-1.8-7 0-2.6.6-4.917 1.8-6.95a12.466 12.466 0 0 1 4.95-4.8c2.133-1.167 4.55-1.75 7.25-1.75 2.4 0 4.533.483 6.4 1.45 1.9.967 3.367 2.367 4.4 4.2l-3.65 2.35c-.833-1.267-1.867-2.217-3.1-2.85s-2.6-.95-4.1-.95c-1.733 0-3.3.383-4.7 1.15-1.367.767-2.45 1.867-3.25 3.3-.767 1.4-1.15 3.017-1.15 4.85 0 1.867.383 3.517 1.15 4.95.8 1.4 1.883 2.483 3.25 3.25 1.4.767 2.967 1.15 4.7 1.15 1.5 0 2.867-.317 4.1-.95 1.233-.633 2.267-1.583 3.1-2.85l3.65 2.3c-1.033 1.833-2.5 3.25-4.4 4.25-1.867.967-4 1.45-6.4 1.45zM122.81 24.75l-5.5 5.1v7.25h-4.8V0h4.8v23.8l14.45-13.2h5.8l-11.15 10.95 12.25 15.55h-5.9l-9.95-12.35zM149.02 6.45v12.2h17.55v4.3h-17.55V37.1h-5v-35h24.7v4.35h-19.7zM198.179 24c0 .367-.034.85-.1 1.45h-21.5c.3 2.333 1.316 4.217 3.05 5.65 1.766 1.4 3.95 2.1 6.55 2.1 3.166 0 5.716-1.067 7.65-3.2l2.65 3.1c-1.2 1.4-2.7 2.467-4.5 3.2-1.767.733-3.75 1.1-5.95 1.1-2.8 0-5.284-.567-7.45-1.7-2.167-1.167-3.85-2.783-5.05-4.85-1.167-2.067-1.75-4.4-1.75-7 0-2.567.566-4.883 1.7-6.95 1.166-2.067 2.75-3.667 4.75-4.8 2.033-1.167 4.316-1.75 6.85-1.75 2.533 0 4.783.583 6.75 1.75 2 1.133 3.55 2.733 4.65 4.8 1.133 2.067 1.7 4.433 1.7 7.1zm-13.1-9.6c-2.3 0-4.234.7-5.8 2.1-1.534 1.4-2.434 3.233-2.7 5.5h17c-.267-2.233-1.184-4.05-2.75-5.45-1.534-1.433-3.45-2.15-5.75-2.15zM219.744 35.55c-.7.6-1.567 1.067-2.6 1.4-1.034.3-2.1.45-3.2.45-2.667 0-4.734-.717-6.2-2.15-1.467-1.433-2.2-3.483-2.2-6.15V14.55h-4.5V10.6h4.5V4.8h4.8v5.8h7.6v3.95h-7.6V28.9c0 1.433.35 2.533 1.05 3.3.733.767 1.766 1.15 3.1 1.15 1.466 0 2.716-.417 3.75-1.25l1.5 3.45zM236.218 37.4c-2.7 0-5.117-.583-7.25-1.75-2.1-1.167-3.75-2.767-4.95-4.8-1.2-2.067-1.8-4.4-1.8-7 0-2.6.6-4.917 1.8-6.95a12.466 12.466 0 0 1 4.95-4.8c2.133-1.167 4.55-1.75 7.25-1.75 2.4 0 4.533.483 6.4 1.45 1.9.967 3.367 2.367 4.4 4.2l-3.65 2.35c-.833-1.267-1.867-2.217-3.1-2.85s-2.6-.95-4.1-.95c-1.733 0-3.3.383-4.7 1.15-1.367.767-2.45 1.867-3.25 3.3-.767 1.4-1.15 3.017-1.15 4.85 0 1.867.383 3.517 1.15 4.95.8 1.4 1.883 2.483 3.25 3.25 1.4.767 2.967 1.15 4.7 1.15 1.5 0 2.867-.317 4.1-.95 1.233-.633 3.182-1.9 4.182-5.15h4c-.5 5-3.932 7.85-5.832 8.85-1.867.967-4 1.45-6.4 1.45zM267.041 10.35c3.366 0 6.033.983 8 2.95 2 1.933 3 4.783 3 8.55V37.1h-4.8V22.4c0-2.567-.617-4.5-1.85-5.8-1.234-1.3-3-1.95-5.3-1.95-2.6 0-4.65.767-6.15 2.3-1.5 1.5-2.25 3.667-2.25 6.5V37.1h-4.8V0h4.8v14.35c1-1.267 2.3-2.25 3.9-2.95 1.633-.7 3.45-1.05 5.45-1.05z" fill="#fff"/>
    <path d="M235.95 49.6V37.117" stroke="#fff" stroke-width="4"/>
    <path d="M234.612 17.657s-1.711.778-2.596 1.873c-.776.96-1.647 2.922-1.647 2.922" stroke="#fff" stroke-width="2"/>
    <path d="M54.45 16.6c4-1.5 10.5-4 10.5-4l9 3.5v11.5m0 0v8.5h-17.5v-8.5l8.5-4.5 9 4.5z" stroke="#ffffff" stroke-width="4"/>
</svg>